<mxfile host="app.diagrams.net" modified="2020-11-14T08:29:34.529Z" agent="5.0 (Windows NT 10.0; Win64; x64) AppleWebKit/537.36 (KHTML, like Gecko) Chrome/86.0.4240.193 Safari/537.36" etag="SXTY88jF61HA3UQuAijS" version="13.9.8" type="github">
  <diagram id="_Vj3maF3Iv_SxYzH1CFh" name="Page-1">
    <mxGraphModel dx="3129" dy="1154" grid="1" gridSize="10" guides="1" tooltips="1" connect="1" arrows="1" fold="1" page="1" pageScale="1" pageWidth="827" pageHeight="1169" math="0" shadow="0">
      <root>
        <mxCell id="0" />
        <mxCell id="1" parent="0" />
        <mxCell id="hAGynyKhxMLSOPA2V5pt-1" value="aCustomer:Customer" style="shape=umlActor;verticalLabelPosition=bottom;verticalAlign=top;html=1;" parent="1" vertex="1">
          <mxGeometry x="-50" y="275" width="30" height="60" as="geometry" />
        </mxCell>
        <mxCell id="hAGynyKhxMLSOPA2V5pt-2" value=": Menu" style="html=1;" parent="1" vertex="1">
          <mxGeometry x="170" y="280" width="110" height="50" as="geometry" />
        </mxCell>
        <mxCell id="hAGynyKhxMLSOPA2V5pt-10" value="" style="endArrow=none;html=1;entryX=0;entryY=0.5;entryDx=0;entryDy=0;exitX=0.5;exitY=0.5;exitDx=0;exitDy=0;exitPerimeter=0;" parent="1" source="hAGynyKhxMLSOPA2V5pt-1" target="hAGynyKhxMLSOPA2V5pt-2" edge="1">
          <mxGeometry width="50" height="50" relative="1" as="geometry">
            <mxPoint x="65" y="305" as="sourcePoint" />
            <mxPoint x="140" y="190" as="targetPoint" />
            <Array as="points">
              <mxPoint x="70" y="305" />
            </Array>
          </mxGeometry>
        </mxCell>
        <mxCell id="hAGynyKhxMLSOPA2V5pt-17" value="1. 주문 시작()&amp;nbsp;▶" style="text;html=1;strokeColor=none;fillColor=none;align=center;verticalAlign=middle;whiteSpace=wrap;rounded=0;" parent="1" vertex="1">
          <mxGeometry x="40" y="275" width="110" height="20" as="geometry" />
        </mxCell>
        <mxCell id="hAGynyKhxMLSOPA2V5pt-28" value=": Sandwich" style="html=1;" parent="1" vertex="1">
          <mxGeometry x="450" y="280" width="110" height="50" as="geometry" />
        </mxCell>
        <mxCell id="hAGynyKhxMLSOPA2V5pt-32" value="&lt;span style=&quot;font-size: 15px ; background-color: rgb(255 , 255 , 255)&quot;&gt;4&lt;/span&gt;. 빵 얻음&amp;nbsp; &amp;nbsp; (size, name) ▶&lt;br&gt;&amp;nbsp;" style="text;html=1;strokeColor=none;fillColor=none;align=center;verticalAlign=middle;whiteSpace=wrap;rounded=0;" parent="1" vertex="1">
          <mxGeometry x="290" y="360" width="160" height="20" as="geometry" />
        </mxCell>
        <mxCell id="hAGynyKhxMLSOPA2V5pt-35" value="&lt;span style=&quot;font-size: 15px ; background-color: rgb(255 , 255 , 255)&quot;&gt;6&lt;/span&gt;. 치즈 얻음(name)&amp;nbsp;▶" style="text;html=1;strokeColor=none;fillColor=none;align=center;verticalAlign=middle;whiteSpace=wrap;rounded=0;" parent="1" vertex="1">
          <mxGeometry x="297.25" y="420" width="100" height="20" as="geometry" />
        </mxCell>
        <mxCell id="hAGynyKhxMLSOPA2V5pt-37" value="&lt;span style=&quot;font-size: 15px ; background-color: rgb(255 , 255 , 255)&quot;&gt;7&lt;/span&gt;. 토핑 얻음(ArrayList&amp;lt;Topping&amp;gt;) ▶" style="text;html=1;strokeColor=none;fillColor=none;align=center;verticalAlign=middle;whiteSpace=wrap;rounded=0;" parent="1" vertex="1">
          <mxGeometry x="281" y="490" width="132.5" height="20" as="geometry" />
        </mxCell>
        <mxCell id="hAGynyKhxMLSOPA2V5pt-39" value="&lt;span style=&quot;font-size: 15px ; background-color: rgb(255 , 255 , 255)&quot;&gt;9&lt;/span&gt;. 소스 얻음(ArrayList&amp;lt;Sauce&amp;gt;)&amp;nbsp;▶" style="text;html=1;strokeColor=none;fillColor=none;align=center;verticalAlign=middle;whiteSpace=wrap;rounded=0;" parent="1" vertex="1">
          <mxGeometry x="297.25" y="575" width="100" height="20" as="geometry" />
        </mxCell>
        <mxCell id="hAGynyKhxMLSOPA2V5pt-66" value="샌드위치 주문" style="shape=umlFrame;whiteSpace=wrap;html=1;width=120;height=40;" parent="1" vertex="1">
          <mxGeometry x="-110" y="20" width="710" height="900" as="geometry" />
        </mxCell>
        <mxCell id="398axXaUY6G2Asph9Ox9-2" value=": Sauce" style="html=1;" parent="1" vertex="1">
          <mxGeometry x="170" y="580" width="110" height="50" as="geometry" />
        </mxCell>
        <mxCell id="VUy_vzExi_sMbyr-WgmK-3" value="" style="endArrow=none;html=1;edgeStyle=orthogonalEdgeStyle;exitX=1;exitY=0.5;exitDx=0;exitDy=0;entryX=0;entryY=0.5;entryDx=0;entryDy=0;" edge="1" parent="1" source="hAGynyKhxMLSOPA2V5pt-2" target="hAGynyKhxMLSOPA2V5pt-28">
          <mxGeometry relative="1" as="geometry">
            <mxPoint x="300" y="304.5" as="sourcePoint" />
            <mxPoint x="380" y="304.5" as="targetPoint" />
          </mxGeometry>
        </mxCell>
        <mxCell id="VUy_vzExi_sMbyr-WgmK-7" value="" style="endArrow=none;html=1;edgeStyle=orthogonalEdgeStyle;entryX=1;entryY=0.5;entryDx=0;entryDy=0;exitX=0.25;exitY=1;exitDx=0;exitDy=0;" edge="1" parent="1" source="hAGynyKhxMLSOPA2V5pt-28" target="VUy_vzExi_sMbyr-WgmK-20">
          <mxGeometry relative="1" as="geometry">
            <mxPoint x="530" y="230" as="sourcePoint" />
            <mxPoint x="610" y="230" as="targetPoint" />
            <Array as="points">
              <mxPoint x="470" y="330" />
              <mxPoint x="470" y="450" />
            </Array>
          </mxGeometry>
        </mxCell>
        <mxCell id="VUy_vzExi_sMbyr-WgmK-8" value="" style="endArrow=none;html=1;edgeStyle=orthogonalEdgeStyle;entryX=1;entryY=0.5;entryDx=0;entryDy=0;" edge="1" parent="1" target="VUy_vzExi_sMbyr-WgmK-21">
          <mxGeometry relative="1" as="geometry">
            <mxPoint x="470" y="330" as="sourcePoint" />
            <mxPoint x="620" y="360" as="targetPoint" />
            <Array as="points">
              <mxPoint x="470" y="525" />
            </Array>
          </mxGeometry>
        </mxCell>
        <mxCell id="VUy_vzExi_sMbyr-WgmK-9" value="" style="endArrow=none;html=1;edgeStyle=orthogonalEdgeStyle;entryX=1;entryY=0.5;entryDx=0;entryDy=0;exitX=0.182;exitY=1.1;exitDx=0;exitDy=0;exitPerimeter=0;" edge="1" parent="1" source="hAGynyKhxMLSOPA2V5pt-28" target="398axXaUY6G2Asph9Ox9-2">
          <mxGeometry relative="1" as="geometry">
            <mxPoint x="550" y="404.5" as="sourcePoint" />
            <mxPoint x="630" y="404.5" as="targetPoint" />
            <Array as="points">
              <mxPoint x="470" y="605" />
            </Array>
          </mxGeometry>
        </mxCell>
        <mxCell id="VUy_vzExi_sMbyr-WgmK-10" value="" style="endArrow=none;html=1;edgeStyle=orthogonalEdgeStyle;entryX=0.336;entryY=1.04;entryDx=0;entryDy=0;entryPerimeter=0;exitX=0.418;exitY=0.02;exitDx=0;exitDy=0;exitPerimeter=0;" edge="1" parent="1" source="VUy_vzExi_sMbyr-WgmK-24" target="hAGynyKhxMLSOPA2V5pt-28">
          <mxGeometry relative="1" as="geometry">
            <mxPoint x="374" y="399" as="sourcePoint" />
            <mxPoint x="454" y="399" as="targetPoint" />
            <Array as="points">
              <mxPoint x="487" y="831" />
            </Array>
          </mxGeometry>
        </mxCell>
        <mxCell id="VUy_vzExi_sMbyr-WgmK-18" value="2. 샌드위치 타입 얻음(MenuInfo) ▶" style="text;html=1;strokeColor=none;fillColor=none;align=center;verticalAlign=middle;whiteSpace=wrap;rounded=0;" vertex="1" parent="1">
          <mxGeometry x="290" y="275" width="135" height="20" as="geometry" />
        </mxCell>
        <mxCell id="VUy_vzExi_sMbyr-WgmK-19" value=": Bread" style="html=1;" vertex="1" parent="1">
          <mxGeometry x="170" y="350" width="110" height="50" as="geometry" />
        </mxCell>
        <mxCell id="VUy_vzExi_sMbyr-WgmK-20" value=": Cheese" style="html=1;" vertex="1" parent="1">
          <mxGeometry x="170" y="425" width="110" height="50" as="geometry" />
        </mxCell>
        <mxCell id="VUy_vzExi_sMbyr-WgmK-21" value=": Topping" style="html=1;" vertex="1" parent="1">
          <mxGeometry x="170" y="500" width="110" height="50" as="geometry" />
        </mxCell>
        <mxCell id="VUy_vzExi_sMbyr-WgmK-24" value=": Order" style="html=1;" vertex="1" parent="1">
          <mxGeometry x="440" y="830" width="110" height="50" as="geometry" />
        </mxCell>
        <mxCell id="VUy_vzExi_sMbyr-WgmK-28" value="" style="endArrow=none;html=1;edgeStyle=orthogonalEdgeStyle;entryX=0;entryY=0.5;entryDx=0;entryDy=0;" edge="1" parent="1" target="VUy_vzExi_sMbyr-WgmK-24">
          <mxGeometry relative="1" as="geometry">
            <mxPoint x="-30" y="360" as="sourcePoint" />
            <mxPoint x="410" y="494.5" as="targetPoint" />
            <Array as="points">
              <mxPoint x="-30" y="855" />
            </Array>
          </mxGeometry>
        </mxCell>
        <mxCell id="VUy_vzExi_sMbyr-WgmK-31" value="" style="endArrow=none;html=1;edgeStyle=orthogonalEdgeStyle;exitX=1;exitY=0.5;exitDx=0;exitDy=0;" edge="1" parent="1" source="VUy_vzExi_sMbyr-WgmK-19">
          <mxGeometry relative="1" as="geometry">
            <mxPoint x="300" y="380" as="sourcePoint" />
            <mxPoint x="470" y="330" as="targetPoint" />
          </mxGeometry>
        </mxCell>
        <mxCell id="VUy_vzExi_sMbyr-WgmK-34" value="" style="endArrow=none;html=1;edgeStyle=orthogonalEdgeStyle;exitX=1;exitY=0.5;exitDx=0;exitDy=0;entryX=0.7;entryY=-0.04;entryDx=0;entryDy=0;entryPerimeter=0;" edge="1" parent="1" source="VUy_vzExi_sMbyr-WgmK-56" target="hAGynyKhxMLSOPA2V5pt-28">
          <mxGeometry relative="1" as="geometry">
            <mxPoint x="390" y="150" as="sourcePoint" />
            <mxPoint x="550" y="200" as="targetPoint" />
            <Array as="points">
              <mxPoint x="527" y="195" />
            </Array>
          </mxGeometry>
        </mxCell>
        <mxCell id="VUy_vzExi_sMbyr-WgmK-41" value="" style="endArrow=none;html=1;edgeStyle=orthogonalEdgeStyle;entryX=0;entryY=0.5;entryDx=0;entryDy=0;" edge="1" parent="1" target="VUy_vzExi_sMbyr-WgmK-19">
          <mxGeometry relative="1" as="geometry">
            <mxPoint x="-33" y="305" as="sourcePoint" />
            <mxPoint x="160" y="380" as="targetPoint" />
            <Array as="points">
              <mxPoint x="40" y="305" />
              <mxPoint x="40" y="375" />
            </Array>
          </mxGeometry>
        </mxCell>
        <mxCell id="VUy_vzExi_sMbyr-WgmK-43" value="" style="endArrow=none;html=1;edgeStyle=orthogonalEdgeStyle;entryX=0;entryY=0.5;entryDx=0;entryDy=0;exitX=0.5;exitY=0.5;exitDx=0;exitDy=0;exitPerimeter=0;" edge="1" parent="1" source="hAGynyKhxMLSOPA2V5pt-1" target="VUy_vzExi_sMbyr-WgmK-20">
          <mxGeometry relative="1" as="geometry">
            <mxPoint x="-46.5" y="380" as="sourcePoint" />
            <mxPoint x="156.5" y="450" as="targetPoint" />
            <Array as="points">
              <mxPoint x="40" y="305" />
              <mxPoint x="40" y="450" />
            </Array>
          </mxGeometry>
        </mxCell>
        <mxCell id="VUy_vzExi_sMbyr-WgmK-44" value="" style="endArrow=none;html=1;edgeStyle=orthogonalEdgeStyle;entryX=0;entryY=0.5;entryDx=0;entryDy=0;exitX=0.5;exitY=0.5;exitDx=0;exitDy=0;exitPerimeter=0;" edge="1" parent="1" source="hAGynyKhxMLSOPA2V5pt-1" target="VUy_vzExi_sMbyr-WgmK-21">
          <mxGeometry relative="1" as="geometry">
            <mxPoint x="-47.5" y="380" as="sourcePoint" />
            <mxPoint x="157.5" y="525" as="targetPoint" />
            <Array as="points">
              <mxPoint x="40" y="305" />
              <mxPoint x="40" y="525" />
            </Array>
          </mxGeometry>
        </mxCell>
        <mxCell id="VUy_vzExi_sMbyr-WgmK-45" value="" style="endArrow=none;html=1;edgeStyle=orthogonalEdgeStyle;entryX=0;entryY=0.5;entryDx=0;entryDy=0;exitX=0.5;exitY=0.5;exitDx=0;exitDy=0;exitPerimeter=0;" edge="1" parent="1" source="hAGynyKhxMLSOPA2V5pt-1" target="398axXaUY6G2Asph9Ox9-2">
          <mxGeometry relative="1" as="geometry">
            <mxPoint x="-47.5" y="390" as="sourcePoint" />
            <mxPoint x="157.5" y="610" as="targetPoint" />
            <Array as="points">
              <mxPoint x="40" y="305" />
              <mxPoint x="40" y="610" />
              <mxPoint x="170" y="610" />
            </Array>
          </mxGeometry>
        </mxCell>
        <mxCell id="VUy_vzExi_sMbyr-WgmK-46" value="3. 빵 선택() ▶" style="text;html=1;strokeColor=none;fillColor=none;align=center;verticalAlign=middle;whiteSpace=wrap;rounded=0;" vertex="1" parent="1">
          <mxGeometry x="60" y="350" width="80" height="20" as="geometry" />
        </mxCell>
        <mxCell id="VUy_vzExi_sMbyr-WgmK-48" value="5. 치즈 선택() ▶" style="text;html=1;strokeColor=none;fillColor=none;align=center;verticalAlign=middle;whiteSpace=wrap;rounded=0;" vertex="1" parent="1">
          <mxGeometry x="50" y="425" width="90" height="20" as="geometry" />
        </mxCell>
        <mxCell id="VUy_vzExi_sMbyr-WgmK-49" value="7. 토핑 선택() ▶" style="text;html=1;strokeColor=none;fillColor=none;align=center;verticalAlign=middle;whiteSpace=wrap;rounded=0;" vertex="1" parent="1">
          <mxGeometry x="50" y="500" width="90" height="20" as="geometry" />
        </mxCell>
        <mxCell id="VUy_vzExi_sMbyr-WgmK-50" value="8. 소스 선택() ▶" style="text;html=1;strokeColor=none;fillColor=none;align=center;verticalAlign=middle;whiteSpace=wrap;rounded=0;" vertex="1" parent="1">
          <mxGeometry x="50" y="585" width="90" height="20" as="geometry" />
        </mxCell>
        <mxCell id="VUy_vzExi_sMbyr-WgmK-52" value="" style="endArrow=none;html=1;edgeStyle=orthogonalEdgeStyle;exitX=0.5;exitY=0.5;exitDx=0;exitDy=0;exitPerimeter=0;entryX=0.5;entryY=0;entryDx=0;entryDy=0;" edge="1" parent="1" source="hAGynyKhxMLSOPA2V5pt-1" target="hAGynyKhxMLSOPA2V5pt-28">
          <mxGeometry relative="1" as="geometry">
            <mxPoint x="102.5" y="-80" as="sourcePoint" />
            <mxPoint x="70" y="60" as="targetPoint" />
            <Array as="points">
              <mxPoint x="40" y="305" />
              <mxPoint x="40" y="250" />
              <mxPoint x="505" y="250" />
            </Array>
          </mxGeometry>
        </mxCell>
        <mxCell id="VUy_vzExi_sMbyr-WgmK-53" value="9. 세트 여부 선택()" style="text;html=1;strokeColor=none;fillColor=none;align=center;verticalAlign=middle;whiteSpace=wrap;rounded=0;" vertex="1" parent="1">
          <mxGeometry x="50" y="220" width="90" height="20" as="geometry" />
        </mxCell>
        <mxCell id="VUy_vzExi_sMbyr-WgmK-55" value=": Side" style="html=1;" vertex="1" parent="1">
          <mxGeometry x="170" y="70" width="110" height="50" as="geometry" />
        </mxCell>
        <mxCell id="VUy_vzExi_sMbyr-WgmK-56" value=": Drink" style="html=1;" vertex="1" parent="1">
          <mxGeometry x="170" y="170" width="110" height="50" as="geometry" />
        </mxCell>
        <mxCell id="VUy_vzExi_sMbyr-WgmK-58" value="" style="endArrow=none;html=1;edgeStyle=orthogonalEdgeStyle;entryX=0;entryY=0.5;entryDx=0;entryDy=0;exitX=0.5;exitY=0.5;exitDx=0;exitDy=0;exitPerimeter=0;" edge="1" parent="1" source="hAGynyKhxMLSOPA2V5pt-1" target="VUy_vzExi_sMbyr-WgmK-56">
          <mxGeometry relative="1" as="geometry">
            <mxPoint x="-33" y="240" as="sourcePoint" />
            <mxPoint x="170" y="310" as="targetPoint" />
            <Array as="points">
              <mxPoint x="40" y="305" />
              <mxPoint x="40" y="195" />
            </Array>
          </mxGeometry>
        </mxCell>
        <mxCell id="VUy_vzExi_sMbyr-WgmK-59" value="" style="endArrow=none;html=1;edgeStyle=orthogonalEdgeStyle;entryX=0;entryY=0.5;entryDx=0;entryDy=0;exitX=0.5;exitY=0.5;exitDx=0;exitDy=0;exitPerimeter=0;" edge="1" parent="1" source="hAGynyKhxMLSOPA2V5pt-1" target="VUy_vzExi_sMbyr-WgmK-55">
          <mxGeometry relative="1" as="geometry">
            <mxPoint x="-13" y="325" as="sourcePoint" />
            <mxPoint x="190" y="395" as="targetPoint" />
            <Array as="points">
              <mxPoint x="40" y="305" />
              <mxPoint x="40" y="95" />
            </Array>
          </mxGeometry>
        </mxCell>
        <mxCell id="VUy_vzExi_sMbyr-WgmK-60" value="10 [ 세트일때 ] 음료 선택() ▶" style="text;html=1;strokeColor=none;fillColor=none;align=center;verticalAlign=middle;whiteSpace=wrap;rounded=0;" vertex="1" parent="1">
          <mxGeometry x="50" y="170" width="90" height="20" as="geometry" />
        </mxCell>
        <mxCell id="VUy_vzExi_sMbyr-WgmK-61" value="12 [ 세트일때 ] 사이드 선택() ▶" style="text;html=1;strokeColor=none;fillColor=none;align=center;verticalAlign=middle;whiteSpace=wrap;rounded=0;" vertex="1" parent="1">
          <mxGeometry x="50" y="100" width="90" height="20" as="geometry" />
        </mxCell>
        <mxCell id="VUy_vzExi_sMbyr-WgmK-63" value="" style="endArrow=none;html=1;edgeStyle=orthogonalEdgeStyle;entryX=0.7;entryY=0;entryDx=0;entryDy=0;entryPerimeter=0;exitX=1;exitY=0.5;exitDx=0;exitDy=0;" edge="1" parent="1" source="VUy_vzExi_sMbyr-WgmK-55" target="hAGynyKhxMLSOPA2V5pt-28">
          <mxGeometry relative="1" as="geometry">
            <mxPoint x="320" y="30" as="sourcePoint" />
            <mxPoint x="527" y="113" as="targetPoint" />
            <Array as="points">
              <mxPoint x="527" y="95" />
            </Array>
          </mxGeometry>
        </mxCell>
        <mxCell id="VUy_vzExi_sMbyr-WgmK-64" value="&lt;span style=&quot;color: rgb(0 , 0 , 0) ; font-family: &amp;#34;helvetica&amp;#34; ; font-size: 12px ; font-style: normal ; font-weight: 400 ; letter-spacing: normal ; text-align: center ; text-indent: 0px ; text-transform: none ; word-spacing: 0px ; background-color: rgb(248 , 249 , 250) ; display: inline ; float: none&quot;&gt;11 [ 세트일때 ] 음료 얻음(size, name) ▶&lt;/span&gt;" style="text;whiteSpace=wrap;html=1;" vertex="1" parent="1">
          <mxGeometry x="290" y="170" width="230" height="30" as="geometry" />
        </mxCell>
        <mxCell id="VUy_vzExi_sMbyr-WgmK-65" value="&lt;span style=&quot;color: rgb(0 , 0 , 0) ; font-family: &amp;#34;helvetica&amp;#34; ; font-size: 12px ; font-style: normal ; font-weight: 400 ; letter-spacing: normal ; text-align: center ; text-indent: 0px ; text-transform: none ; word-spacing: 0px ; background-color: rgb(248 , 249 , 250) ; display: inline ; float: none&quot;&gt;13 [ 세트일때 ] 사이드 얻음(name) ▶&lt;/span&gt;" style="text;whiteSpace=wrap;html=1;" vertex="1" parent="1">
          <mxGeometry x="290" y="70" width="212.75" height="30" as="geometry" />
        </mxCell>
        <mxCell id="VUy_vzExi_sMbyr-WgmK-66" value="14. 샌드위치 추가(Sandwich)&lt;br&gt;&lt;span style=&quot;font-family: , sans-serif ; font-size: 15px ; background-color: rgb(255 , 255 , 255)&quot;&gt;▼&lt;/span&gt;" style="text;html=1;strokeColor=none;fillColor=none;align=center;verticalAlign=middle;whiteSpace=wrap;rounded=0;" vertex="1" parent="1">
          <mxGeometry x="490" y="350" width="100" height="20" as="geometry" />
        </mxCell>
        <mxCell id="VUy_vzExi_sMbyr-WgmK-67" value="&lt;span style=&quot;font-family: , sans-serif ; font-size: 15px ; background-color: rgb(255 , 255 , 255)&quot;&gt;◀&lt;/span&gt;15. 샌드위치" style="text;html=1;strokeColor=none;fillColor=none;align=center;verticalAlign=middle;whiteSpace=wrap;rounded=0;" vertex="1" parent="1">
          <mxGeometry x="297" y="830" width="93" height="20" as="geometry" />
        </mxCell>
      </root>
    </mxGraphModel>
  </diagram>
</mxfile>
